<svg width="115" height="39" viewBox="0 0 115 39" fill="none" xmlns="http://www.w3.org/2000/svg">
<g clip-path="url(#clip0_1167_8751)">
<g clip-path="url(#clip1_1167_8751)">
<path d="M5.04066 27.2197L18.2536 34.9434V20.118L13.192 17.1116L13.1717 23.0012L17.5015 25.5486L17.4811 29.4818L9.04519 24.6519V14.7069L5 12.3633L5.04066 27.2197Z" fill="url(#paint0_linear_1167_8751)"/>
<path d="M18.2539 34.9434V20.1607L31.0166 12.3633V16.6681L22.1382 22.1507V26.5774L30.977 21.176V27.2272L18.2539 34.9434Z" fill="url(#paint1_linear_1167_8751)"/>
<path d="M8.98393 14.864L5 12.5785L18.0383 5L31.0163 12.5384L18.1188 20.2171L13.0685 17.2498L22.143 11.8567L18.0786 9.47089L8.98393 14.864Z" fill="url(#paint2_linear_1167_8751)"/>
<path d="M43.7017 23.7139C44.0435 23.7139 44.3408 23.6489 44.5938 23.5191C44.8467 23.3892 45.0415 23.208 45.1782 22.9756C45.3218 22.7363 45.3936 22.4492 45.3936 22.1143H48.4082C48.4082 22.9209 48.1997 23.6318 47.7827 24.2471C47.3726 24.8623 46.8189 25.3443 46.1216 25.6929C45.4243 26.0347 44.6382 26.2056 43.7632 26.2056C42.9019 26.2056 42.1499 26.0654 41.5073 25.7852C40.8648 25.4981 40.3281 25.0982 39.8975 24.5855C39.4668 24.0728 39.1421 23.478 38.9234 22.8013C38.7114 22.1177 38.6055 21.3794 38.6055 20.5864V20.3198C38.6055 19.5337 38.7114 18.7988 38.9234 18.1152C39.1421 17.4317 39.4668 16.8335 39.8975 16.3208C40.3281 15.8081 40.8613 15.4116 41.4971 15.1314C42.1397 14.8443 42.8916 14.7007 43.7529 14.7007C44.6621 14.7007 45.4653 14.875 46.1626 15.2236C46.8667 15.5723 47.417 16.0747 47.8135 16.731C48.21 17.3804 48.4082 18.1631 48.4082 19.0791H45.3936C45.3936 18.7236 45.3286 18.4058 45.1987 18.1255C45.0757 17.8384 44.8843 17.6128 44.6245 17.4487C44.3716 17.2778 44.0571 17.1924 43.6812 17.1924C43.2915 17.1924 42.9702 17.2778 42.7173 17.4487C42.4712 17.6128 42.2832 17.8418 42.1533 18.1358C42.0234 18.4297 41.9346 18.7647 41.8867 19.1406C41.8389 19.5098 41.815 19.9028 41.815 20.3198V20.5864C41.815 21.0103 41.8389 21.4136 41.8867 21.7964C41.9346 22.1724 42.0234 22.5039 42.1533 22.791C42.2901 23.0781 42.4815 23.3037 42.7276 23.4678C42.9736 23.6318 43.2984 23.7139 43.7017 23.7139ZM55.8731 23.355V18.5972C55.8731 18.2622 55.8218 17.9751 55.7193 17.7359C55.6167 17.4966 55.4561 17.3086 55.2373 17.1719C55.0186 17.0352 54.7349 16.9668 54.3862 16.9668C54.0923 16.9668 53.8359 17.0181 53.6172 17.1206C53.4053 17.2232 53.2412 17.3701 53.125 17.5615C53.0156 17.7529 52.9609 17.9888 52.9609 18.2691H49.7617C49.7617 17.77 49.8745 17.3052 50.1001 16.8745C50.3257 16.4439 50.647 16.0645 51.064 15.7363C51.4878 15.4082 51.9937 15.1553 52.5816 14.9776C53.1694 14.793 53.8291 14.7007 54.5606 14.7007C55.4287 14.7007 56.2012 14.8477 56.8779 15.1416C57.5615 15.4287 58.1016 15.8628 58.4981 16.4439C58.8945 17.0181 59.0928 17.7427 59.0928 18.6177V23.2627C59.0928 23.9326 59.1304 24.459 59.2056 24.8418C59.2876 25.2178 59.4038 25.5459 59.5542 25.8262V26.0005H56.3242C56.1738 25.6792 56.061 25.2827 55.9859 24.811C55.9107 24.3325 55.8731 23.8472 55.8731 23.355ZM56.273 19.2329L56.2935 20.9966H54.7041C54.3486 20.9966 54.041 21.041 53.7813 21.1299C53.5283 21.2188 53.3233 21.3418 53.166 21.499C53.0088 21.6494 52.8926 21.8272 52.8174 22.0322C52.749 22.2305 52.7149 22.4492 52.7149 22.6885C52.7149 22.9141 52.7695 23.1192 52.8789 23.3037C52.9883 23.4815 53.1387 23.6216 53.3301 23.7241C53.5215 23.8267 53.7437 23.8779 53.9966 23.8779C54.4136 23.8779 54.7691 23.7959 55.063 23.6318C55.3638 23.4678 55.5962 23.2695 55.7603 23.0371C55.9243 22.7979 56.0064 22.5757 56.0064 22.3706L56.7754 23.7036C56.6524 23.9771 56.502 24.2608 56.3242 24.5547C56.1465 24.8418 55.9209 25.1118 55.6475 25.3648C55.374 25.6109 55.0425 25.8125 54.6528 25.9697C54.27 26.127 53.8086 26.2056 53.2686 26.2056C52.5713 26.2056 51.939 26.0654 51.3716 25.7852C50.8042 25.4981 50.3496 25.105 50.0078 24.606C49.6729 24.1069 49.5054 23.5327 49.5054 22.8833C49.5054 22.3023 49.6113 21.7861 49.8233 21.335C50.0352 20.8838 50.353 20.501 50.7769 20.1865C51.2075 19.8721 51.7476 19.6362 52.397 19.479C53.0464 19.315 53.8052 19.2329 54.6734 19.2329H56.273ZM70.167 23.5088V26.0005H61.6563V23.5088H70.167ZM70.0337 16.69L63.0303 26.0005H60.8565V24.1548L67.8394 14.9058H70.0337V16.69ZM68.9365 14.9058V17.3975H61.041V14.9058H68.9365ZM75.1709 17.0386V30.2661H71.9717V14.9058H74.9556L75.1709 17.0386ZM82.0923 20.3301V20.5454C82.0923 21.3521 82 22.1006 81.8154 22.791C81.6309 23.4746 81.354 24.0728 80.9849 24.5855C80.6226 25.0982 80.1748 25.4981 79.6416 25.7852C79.1084 26.0654 78.4898 26.2056 77.7857 26.2056C77.1157 26.2056 76.5347 26.0654 76.0425 25.7852C75.5571 25.4981 75.147 25.1016 74.812 24.5957C74.4839 24.083 74.2173 23.4985 74.0122 22.8423C73.814 22.1792 73.6602 21.4717 73.5508 20.7197V20.2993C73.6602 19.4995 73.8174 18.7578 74.0225 18.0742C74.2276 17.3906 74.4942 16.7993 74.8223 16.3003C75.1504 15.7944 75.5571 15.4014 76.0425 15.1211C76.5278 14.8408 77.1055 14.7007 77.7754 14.7007C78.4727 14.7007 79.0913 14.834 79.6314 15.1006C80.1714 15.3672 80.6226 15.75 80.9849 16.249C81.354 16.7412 81.6309 17.3325 81.8154 18.023C82 18.7134 82.0923 19.4824 82.0923 20.3301ZM78.8828 20.5454V20.3301C78.8828 19.8789 78.8486 19.4653 78.7803 19.0894C78.7119 18.7066 78.6026 18.375 78.4522 18.0947C78.3018 17.8076 78.1035 17.5855 77.8574 17.4282C77.6113 17.271 77.3106 17.1924 76.9551 17.1924C76.5723 17.1924 76.2476 17.2539 75.981 17.377C75.7144 17.5 75.499 17.6812 75.335 17.9204C75.1709 18.1528 75.0513 18.44 74.9761 18.7817C74.9077 19.1235 74.8701 19.5132 74.8633 19.9507V21.0786C74.8701 21.5913 74.9419 22.0493 75.0786 22.4526C75.2222 22.8491 75.4443 23.1602 75.7451 23.3858C76.0527 23.6045 76.4629 23.7139 76.9756 23.7139C77.3379 23.7139 77.6387 23.6353 77.8779 23.478C78.124 23.314 78.3189 23.085 78.4624 22.791C78.6128 22.4971 78.7188 22.1587 78.7803 21.7759C78.8486 21.3931 78.8828 20.9829 78.8828 20.5454ZM87.168 14.9058V26.0005H83.9585V14.9058H87.168ZM83.7637 12.0347C83.7637 11.5698 83.9277 11.1904 84.2559 10.8965C84.584 10.5957 85.0147 10.4453 85.5479 10.4453C86.0811 10.4453 86.5117 10.5957 86.8399 10.8965C87.1748 11.1904 87.3423 11.5698 87.3423 12.0347C87.3423 12.4927 87.1748 12.8721 86.8399 13.1729C86.5117 13.4668 86.0811 13.6138 85.5479 13.6138C85.0147 13.6138 84.584 13.4668 84.2559 13.1729C83.9277 12.8721 83.7637 12.4927 83.7637 12.0347ZM95.3506 23.355V18.5972C95.3506 18.2622 95.2993 17.9751 95.1968 17.7359C95.0943 17.4966 94.9336 17.3086 94.7149 17.1719C94.4961 17.0352 94.2124 16.9668 93.8638 16.9668C93.5698 16.9668 93.3135 17.0181 93.0947 17.1206C92.8828 17.2232 92.7188 17.3701 92.6026 17.5615C92.4932 17.7529 92.4385 17.9888 92.4385 18.2691H89.2393C89.2393 17.77 89.3521 17.3052 89.5776 16.8745C89.8032 16.4439 90.1245 16.0645 90.5415 15.7363C90.9653 15.4082 91.4712 15.1553 92.0591 14.9776C92.647 14.793 93.3067 14.7007 94.0381 14.7007C94.9063 14.7007 95.6787 14.8477 96.3555 15.1416C97.0391 15.4287 97.5791 15.8628 97.9756 16.4439C98.3721 17.0181 98.5703 17.7427 98.5703 18.6177V23.2627C98.5703 23.9326 98.6079 24.459 98.6831 24.8418C98.7651 25.2178 98.8814 25.5459 99.0317 25.8262V26.0005H95.8018C95.6514 25.6792 95.5386 25.2827 95.4634 24.811C95.3882 24.3325 95.3506 23.8472 95.3506 23.355ZM95.7505 19.2329L95.771 20.9966H94.1817C93.8262 20.9966 93.5186 21.041 93.2588 21.1299C93.0059 21.2188 92.8008 21.3418 92.6436 21.499C92.4863 21.6494 92.3701 21.8272 92.2949 22.0322C92.2266 22.2305 92.1924 22.4492 92.1924 22.6885C92.1924 22.9141 92.2471 23.1192 92.3565 23.3037C92.4658 23.4815 92.6162 23.6216 92.8076 23.7241C92.999 23.8267 93.2212 23.8779 93.4741 23.8779C93.8911 23.8779 94.2466 23.7959 94.5405 23.6318C94.8413 23.4678 95.0737 23.2695 95.2378 23.0371C95.4019 22.7979 95.4839 22.5757 95.4839 22.3706L96.2529 23.7036C96.1299 23.9771 95.9795 24.2608 95.8018 24.5547C95.624 24.8418 95.3984 25.1118 95.125 25.3648C94.8516 25.6109 94.52 25.8125 94.1304 25.9697C93.7476 26.127 93.2861 26.2056 92.7461 26.2056C92.0488 26.2056 91.4165 26.0654 90.8491 25.7852C90.2817 25.4981 89.8272 25.105 89.4854 24.606C89.1504 24.1069 88.9829 23.5327 88.9829 22.8833C88.9829 22.3023 89.0889 21.7861 89.3008 21.335C89.5127 20.8838 89.8306 20.501 90.2544 20.1865C90.6851 19.8721 91.2251 19.6362 91.8745 19.479C92.5239 19.315 93.2827 19.2329 94.1509 19.2329H95.7505ZM103.81 17.2744V26.0005H100.6V14.9058H103.615L103.81 17.2744ZM103.389 20.0635L102.589 20.084C102.589 19.25 102.692 18.5015 102.897 17.8384C103.102 17.1753 103.393 16.6113 103.769 16.1465C104.151 15.6748 104.606 15.3159 105.132 15.0698C105.666 14.8237 106.253 14.7007 106.896 14.7007C107.416 14.7007 107.891 14.7759 108.321 14.9263C108.752 15.0767 109.121 15.3193 109.429 15.6543C109.743 15.9824 109.982 16.4199 110.146 16.9668C110.311 17.5068 110.393 18.1734 110.393 18.9663V26.0005H107.173V18.9561C107.173 18.4912 107.108 18.1323 106.978 17.8794C106.848 17.6265 106.657 17.4487 106.404 17.3462C106.158 17.2437 105.857 17.1924 105.501 17.1924C105.125 17.1924 104.804 17.2676 104.538 17.418C104.271 17.5615 104.052 17.7632 103.881 18.023C103.71 18.2827 103.584 18.5869 103.502 18.9356C103.427 19.2842 103.389 19.6602 103.389 20.0635Z" fill="#4525DC"/>
</g>
</g>
<defs>
<linearGradient id="paint0_linear_1167_8751" x1="5" y1="12.3633" x2="17.1223" y2="34.9586" gradientUnits="userSpaceOnUse">
<stop offset="0.102884" stop-color="#4599FF"/>
<stop offset="1" stop-color="#405BFE"/>
</linearGradient>
<linearGradient id="paint1_linear_1167_8751" x1="18.2539" y1="19.7343" x2="31.1732" y2="27.1156" gradientUnits="userSpaceOnUse">
<stop stop-color="#4522E1"/>
<stop offset="1" stop-color="#4729D8"/>
</linearGradient>
<linearGradient id="paint2_linear_1167_8751" x1="5" y1="12.6186" x2="30.3523" y2="12.6186" gradientUnits="userSpaceOnUse">
<stop stop-color="#4970FF"/>
<stop offset="1" stop-color="#6C3EFE"/>
</linearGradient>
<clipPath id="clip0_1167_8751">
<rect width="115" height="39" fill="white"/>
</clipPath>
<clipPath id="clip1_1167_8751">
<rect width="115" height="39" fill="white"/>
</clipPath>
</defs>
</svg>
